<?xml version="1.0" standalone="no"?>
<!DOCTYPE svg PUBLIC "-//W3C//DTD SVG 20010904//EN"
 "http://www.w3.org/TR/2001/REC-SVG-20010904/DTD/svg10.dtd">
<svg version="1.0" xmlns="http://www.w3.org/2000/svg"
 width="1024.000000pt" height="1024.000000pt" viewBox="0 0 1024.000000 1024.000000"
 preserveAspectRatio="xMidYMid meet">

<g transform="translate(0.000000,1024.000000) scale(0.100000,-0.100000)"
fill="#000000" stroke="none">
<path d="M1347 8906 c-51 -19 -73 -40 -92 -90 -14 -37 -15 -306 -13 -2628 l3
-2587 21 -28 c11 -15 36 -38 54 -50 l33 -23 2617 0 c2523 0 2617 1 2633 18 23
25 21 78 -3 102 -20 20 -33 20 -2625 20 l-2605 0 2 2573 3 2572 3330 0 3330 0
3 -2054 c2 -1894 3 -2056 19 -2073 22 -24 66 -23 89 3 19 21 19 70 19 2089 l0
2069 -21 28 c-11 15 -40 38 -64 51 l-44 22 -3326 0 c-2778 -1 -3331 -3 -3363
-14z"/>
<path d="M6966 4568 c-35 -49 -7 -158 85 -338 95 -185 233 -329 398 -414 84
-43 236 -96 332 -117 l49 -11 0 -255 0 -256 -41 64 c-52 80 -157 190 -230 240
-80 54 -202 113 -289 140 -63 19 -98 23 -216 24 -166 0 -179 -5 -171 -71 6
-57 95 -234 169 -339 86 -121 147 -173 285 -243 174 -88 281 -118 440 -124
l73 -3 0 -85 c1 -47 3 -109 6 -137 l4 -53 -404 0 -404 0 -27 -31 c-25 -31 -26
-35 -20 -113 20 -235 28 -257 111 -290 27 -11 50 -20 51 -21 1 -1 21 -127 43
-281 49 -345 54 -372 82 -435 25 -59 70 -96 157 -131 53 -21 72 -23 351 -26
166 -2 337 1 392 7 160 18 264 67 305 145 16 30 53 218 53 268 l0 28 239 0
c237 0 240 0 255 22 9 12 16 32 16 43 0 11 -7 31 -16 43 -15 22 -19 22 -245
22 -215 0 -230 1 -225 18 2 9 13 76 22 148 l18 132 42 21 c55 26 71 58 84 168
17 150 14 197 -16 232 l-26 31 -349 0 -349 0 0 44 0 45 58 11 c237 47 435 152
555 295 90 107 177 302 177 395 0 14 -7 36 -16 48 -13 19 -24 22 -80 22 -92 0
-208 -26 -289 -65 -160 -78 -359 -250 -415 -361 l-25 -49 -3 240 c-1 132 0
245 2 252 3 7 16 13 28 13 46 1 246 77 343 130 79 44 120 76 201 155 146 144
220 280 275 503 27 112 21 159 -25 181 -26 12 -41 10 -150 -18 -252 -67 -463
-200 -583 -368 -24 -34 -65 -107 -92 -163 l-48 -102 -6 59 c-8 76 -49 198
-100 298 -32 62 -62 101 -137 175 -145 145 -284 215 -482 244 -152 23 -203 21
-222 -6z m294 -134 c30 -8 93 -33 140 -56 110 -54 237 -177 292 -283 49 -96
99 -255 79 -255 -24 0 -188 53 -234 76 -117 59 -232 159 -306 267 -36 53 -131
244 -131 265 0 16 64 10 160 -14z m1426 -141 c-3 -10 -15 -49 -27 -88 -62
-205 -192 -372 -371 -478 -65 -39 -196 -93 -250 -104 -30 -6 -30 -6 -23 28 37
174 111 307 239 434 102 101 184 150 326 196 103 33 113 34 106 12z m-1389
-818 c160 -50 330 -196 411 -352 55 -107 59 -123 32 -123 -47 0 -180 33 -257
64 -100 41 -220 123 -282 193 -51 58 -151 219 -151 243 0 23 142 9 247 -25z
m1353 -158 c0 -2 -12 -32 -26 -68 -73 -178 -229 -320 -431 -390 -79 -27 -143
-39 -143 -26 0 26 74 159 121 215 93 112 276 230 402 257 71 15 77 16 77 12z
m-33 -899 c-4 -24 -9 -69 -13 -100 l-6 -58 -719 0 -718 0 -6 33 c-3 17 -9 62
-14 100 l-7 67 744 0 744 0 -5 -42z m-141 -320 c-3 -18 -24 -161 -46 -318 -23
-156 -46 -296 -53 -310 -14 -28 -76 -53 -179 -70 -82 -13 -599 -13 -658 1 -67
15 -109 39 -125 70 -13 24 -64 297 -79 419 -10 92 -27 206 -32 223 -5 16 28
17 586 17 l592 0 -6 -32z"/>
<path d="M1186 1818 c-9 -12 -16 -32 -16 -43 0 -11 7 -31 16 -43 l15 -22 2924
0 2924 0 15 22 c22 31 20 64 -4 88 -20 20 -33 20 -2939 20 l-2920 0 -15 -22z"/>
</g>
</svg>
