<?xml version="1.0" standalone="no"?>
<!DOCTYPE svg PUBLIC "-//W3C//DTD SVG 20010904//EN"
 "http://www.w3.org/TR/2001/REC-SVG-20010904/DTD/svg10.dtd">
<svg version="1.0" xmlns="http://www.w3.org/2000/svg"
 width="1024.000000pt" height="1024.000000pt" viewBox="0 0 1024.000000 1024.000000"
 preserveAspectRatio="xMidYMid meet">

<g transform="translate(0.000000,1024.000000) scale(0.100000,-0.100000)"
fill="#000000" stroke="none">
<path d="M3375 8431 c-80 -37 -128 -119 -134 -229 -5 -103 13 -156 70 -214
l47 -47 -34 -173 c-19 -95 -59 -303 -88 -463 -30 -159 -80 -423 -111 -585 -30
-162 -99 -529 -151 -815 -52 -286 -133 -711 -179 -945 -46 -234 -95 -490 -110
-570 -14 -80 -27 -154 -30 -165 -4 -19 -11 -20 -173 -17 -141 3 -172 1 -184
-12 -9 -9 -26 -74 -41 -153 -36 -196 -38 -211 -22 -226 17 -17 128 -25 493
-34 155 -3 282 -9 282 -12 0 -3 -16 -73 -35 -156 -271 -1158 -376 -1633 -372
-1688 5 -78 34 -108 109 -115 66 -5 101 19 133 92 12 28 71 254 130 503 l109
452 210 -5 c116 -3 367 -9 558 -14 191 -6 410 -10 486 -10 l139 0 83 -336 c71
-292 86 -340 111 -368 64 -73 192 -68 227 10 21 44 13 93 -62 392 l-74 292 42
0 c113 0 1020 -21 1023 -23 2 -3 -46 -210 -163 -706 -39 -166 -40 -214 -6
-260 10 -14 36 -32 57 -39 80 -26 142 13 174 111 19 59 173 679 221 891 l22
99 142 -7 c77 -3 326 -11 551 -17 226 -6 482 -14 570 -17 l159 -7 83 -360 c46
-198 92 -378 103 -400 36 -74 123 -98 191 -52 42 28 60 76 52 142 -7 63 -165
776 -277 1250 -94 400 -231 996 -270 1178 -14 65 -50 223 -80 350 -30 128 -80
345 -111 484 l-56 251 75 419 c263 1465 276 1541 311 1802 17 125 24 211 20
242 -10 70 -60 148 -114 176 -42 22 -54 23 -260 23 -119 0 -450 7 -736 15
-886 25 -1535 45 -2189 65 -795 25 -869 25 -921 1z m790 -86 c281 -8 677 -19
880 -25 204 -6 519 -15 700 -20 182 -5 422 -12 535 -15 429 -11 910 -29 910
-34 0 -3 -7 -24 -15 -46 -8 -22 -14 -72 -15 -111 0 -59 5 -81 28 -128 l29 -56
-271 5 c-749 15 -2592 68 -3146 91 -380 16 -406 18 -427 37 -60 54 -69 183
-19 256 43 61 73 71 196 66 58 -3 335 -12 615 -20z m3303 -116 c52 -53 54 -88
16 -346 -63 -439 -229 -1389 -469 -2678 -94 -510 -114 -608 -200 -1000 -45
-209 -87 -400 -91 -424 l-9 -44 -120 2 c-66 1 -192 8 -280 16 -88 7 -279 16
-425 20 -146 3 -431 12 -635 20 -203 8 -647 22 -985 30 -338 8 -860 24 -1159
35 -300 11 -588 20 -642 20 -53 0 -110 3 -126 6 l-29 6 24 116 c14 65 25 118
26 119 2 2 124 -4 272 -11 148 -8 370 -17 494 -21 388 -10 1655 -54 1890 -65
337 -16 1357 -50 1480 -50 83 0 110 3 120 15 14 17 86 375 240 1186 60 321
132 701 160 844 28 143 64 339 80 435 17 96 62 335 100 530 87 444 161 876
153 898 -3 10 -23 35 -44 57 -92 96 -91 251 1 297 19 10 56 18 81 18 39 0 52
-5 77 -31z m-3558 -319 c162 -5 412 -12 555 -15 143 -3 481 -12 750 -20 922
-27 1610 -45 1822 -47 116 -2 213 -5 216 -8 7 -7 -100 -625 -187 -1080 -174
-914 -409 -2154 -455 -2403 -27 -148 -51 -271 -55 -274 -6 -6 -849 23 -1661
58 -253 10 -683 26 -955 34 -1013 30 -1165 36 -1184 41 -14 5 -17 12 -12 38 4
17 54 281 112 586 57 305 131 692 164 860 81 414 105 542 215 1145 52 286 121
652 152 813 l58 294 85 -6 c47 -3 218 -10 380 -16z m3335 -2840 c164 -716 365
-1588 415 -1800 88 -371 250 -1103 250 -1128 0 -35 -75 -57 -99 -28 -6 7 -41
141 -77 297 -118 514 -255 1111 -294 1289 -22 96 -76 326 -120 510 -121 500
-220 936 -220 967 0 21 43 275 51 303 1 3 4 -6 6 -20 3 -14 43 -189 88 -390z
m-175 -136 c0 -19 104 -462 191 -813 38 -156 83 -347 99 -425 17 -78 63 -282
103 -453 l74 -313 -31 0 c-50 0 -1351 42 -1352 43 -1 1 37 159 85 350 l86 348
45 -6 c25 -3 122 -6 217 -8 145 -2 175 0 188 14 9 9 29 84 49 190 19 96 59
280 89 409 30 129 74 337 97 462 24 125 47 225 52 222 4 -3 8 -12 8 -20z
m-3861 -1170 c2 -2 -11 -63 -28 -136 -18 -73 -70 -295 -117 -493 -127 -540
-284 -1193 -291 -1210 -9 -26 -37 -35 -64 -21 -21 10 -24 18 -23 62 2 45 89
434 315 1404 49 212 92 391 94 398 4 9 18 11 57 6 29 -4 55 -8 57 -10z m651
-15 c212 -6 388 -14 391 -18 3 -3 50 -186 104 -406 54 -220 100 -404 103 -409
3 -5 -102 -6 -249 -2 -140 4 -445 11 -678 16 -233 5 -426 11 -428 13 -3 3 179
773 193 816 3 10 23 12 92 7 48 -3 260 -11 472 -17z m604 -31 c2 -7 46 -186
96 -398 51 -212 95 -391 98 -398 3 -10 -10 -12 -59 -10 l-63 3 -37 150 c-118
481 -159 651 -159 658 0 13 120 8 124 -5z m946 -14 c333 -9 610 -17 617 -19 9
-3 8 -18 -2 -62 -8 -32 -50 -210 -93 -396 -44 -186 -82 -340 -85 -343 -2 -3
-182 0 -398 5 -217 6 -464 11 -549 11 l-156 0 -27 113 c-121 503 -167 699
-167 708 0 8 37 9 128 5 70 -3 399 -13 732 -22z m830 -33 c0 -4 -47 -199 -104
-432 -57 -233 -154 -631 -216 -884 -61 -253 -117 -466 -122 -472 -23 -28 -88
-4 -88 31 0 15 341 1479 402 1724 l10 42 59 0 c33 0 59 -4 59 -9z m-1597 -849
l39 -7 74 -290 c40 -159 73 -302 74 -317 0 -48 -67 -61 -103 -20 -11 13 -167
608 -167 637 0 7 36 5 83 -3z"/>
<path d="M3925 7391 c-40 -8 -60 -50 -75 -159 -7 -48 -46 -271 -87 -497 -41
-225 -77 -424 -80 -442 -4 -26 -1 -34 23 -50 26 -16 70 -19 523 -30 297 -7
504 -8 518 -2 13 5 30 24 38 43 15 36 196 987 197 1038 1 41 -26 65 -80 72
-26 3 -225 10 -442 16 -217 5 -420 12 -450 14 -30 2 -68 1 -85 -3z m560 -96
c138 -3 286 -8 331 -11 l81 -6 -13 -71 c-99 -556 -156 -868 -162 -892 l-8 -30
-105 3 c-57 2 -268 7 -468 12 -200 5 -365 11 -368 13 -2 2 19 125 47 273 27
148 69 372 92 498 l43 228 140 -6 c77 -3 253 -8 390 -11z"/>
<path d="M5806 7144 c-273 -66 -461 -334 -443 -629 10 -155 65 -274 172 -372
220 -200 574 -204 802 -8 145 124 225 383 179 579 -49 208 -213 379 -413 431
-71 19 -218 18 -297 -1z m309 -96 c110 -36 209 -117 267 -218 78 -135 78 -332
-2 -489 -145 -288 -540 -354 -783 -131 -102 93 -147 200 -147 348 0 178 69
320 202 418 134 98 304 125 463 72z"/>
<path d="M3592 5488 c-7 -7 -12 -20 -12 -29 0 -33 29 -44 134 -46 55 -2 283
-7 506 -13 223 -5 575 -15 782 -22 308 -9 380 -9 392 1 19 16 21 45 3 59 -14
12 -324 25 -1137 47 -649 18 -653 18 -668 3z"/>
<path d="M3760 4961 c-67 -21 -178 -79 -242 -126 -35 -25 -48 -42 -48 -59 0
-37 34 -43 79 -13 99 66 276 137 341 137 30 0 33 -5 45 -93 8 -49 26 -77 51
-77 49 0 290 77 372 119 45 23 44 23 61 -32 20 -61 31 -62 229 -27 97 17 192
34 211 38 43 9 60 34 41 58 -13 14 -27 16 -110 10 -52 -3 -126 -13 -165 -21
-138 -31 -130 -32 -143 13 -7 22 -21 50 -31 63 l-19 23 -78 -38 c-82 -40 -262
-103 -309 -108 -26 -3 -29 0 -40 49 -6 28 -19 63 -29 77 -15 24 -22 26 -89 25
-39 0 -97 -9 -127 -18z"/>
</g>
</svg>
