<?xml version="1.0" standalone="no"?>
<!DOCTYPE svg PUBLIC "-//W3C//DTD SVG 20010904//EN"
 "http://www.w3.org/TR/2001/REC-SVG-20010904/DTD/svg10.dtd">
<svg version="1.0" xmlns="http://www.w3.org/2000/svg"
 width="1024.000000pt" height="1024.000000pt" viewBox="0 0 1024.000000 1024.000000"
 preserveAspectRatio="xMidYMid meet">

<g transform="translate(0.000000,1024.000000) scale(0.100000,-0.100000)"
fill="#000000" stroke="none">
<path d="M2815 7562 c-129 -44 -216 -133 -255 -259 -20 -64 -20 -91 -20 -1613
l0 -1548 -39 -268 c-22 -148 -43 -294 -46 -324 -4 -30 -11 -77 -16 -104 -35
-186 19 -326 150 -394 l63 -32 2307 2 2306 3 58 27 c108 51 199 168 227 294 6
26 15 80 20 119 5 38 11 86 14 105 5 33 36 253 92 650 13 96 31 222 39 280 8
58 24 170 35 250 11 80 22 159 24 175 6 31 44 305 52 365 2 19 9 67 15 105 15
96 13 85 59 415 47 330 48 386 7 466 -47 92 -156 164 -249 164 -29 0 -30 1
-24 38 3 20 9 80 12 133 6 90 5 99 -21 158 -34 74 -111 150 -182 177 -45 18
-110 19 -1178 24 -1024 5 -1134 7 -1178 23 -111 38 -169 80 -341 245 -201 193
-262 242 -352 284 -122 57 -128 57 -859 57 -610 0 -675 -1 -720 -17z m1456
-91 c124 -35 162 -62 379 -269 201 -192 240 -224 314 -258 135 -62 57 -58
1291 -64 l1130 -5 40 -22 c52 -28 100 -78 119 -125 24 -56 21 -118 -10 -265
l-4 -23 -2233 -2 -2232 -3 -46 -21 c-62 -29 -120 -88 -152 -155 -21 -43 -34
-109 -66 -334 -23 -154 -44 -300 -47 -325 -3 -25 -21 -148 -40 -275 -19 -126
-36 -243 -38 -260 -3 -16 -10 -73 -17 -125 -6 -52 -15 -100 -18 -107 -5 -11
-5 665 2 1957 2 489 2 496 24 536 12 23 44 61 72 86 88 79 61 76 806 77 618 1
664 0 726 -18z m3430 -1133 c58 -17 114 -70 133 -125 24 -71 27 -43 -44 -528
-16 -110 -32 -220 -35 -245 -2 -25 -7 -54 -9 -65 -2 -11 -7 -42 -10 -70 -4
-27 -9 -61 -11 -75 -8 -50 -14 -96 -20 -145 -4 -27 -26 -185 -50 -350 -24
-166 -47 -328 -50 -360 -4 -33 -19 -145 -35 -250 -16 -104 -31 -212 -35 -240
-3 -27 -22 -160 -40 -295 -41 -288 -60 -342 -146 -410 -96 -76 103 -70 -2410
-70 -2479 0 -2293 -5 -2357 61 -44 45 -66 116 -59 193 5 59 42 315 92 651 13
88 27 180 30 205 7 55 26 190 30 210 1 8 6 40 10 70 4 30 9 64 11 75 2 10 6
35 9 55 13 94 48 339 80 555 20 132 60 408 90 613 58 398 67 433 127 490 69
66 -107 61 2387 62 1698 0 2283 -3 2312 -12z"/>
<path d="M5184 5842 c-17 -11 -41 -34 -53 -51 -24 -33 -146 -284 -225 -462
l-47 -106 -82 -12 c-45 -6 -100 -13 -122 -16 -22 -2 -71 -9 -110 -15 -38 -5
-90 -12 -115 -15 -212 -26 -259 -44 -285 -107 -21 -54 -19 -78 13 -129 24 -37
242 -253 411 -406 l48 -44 -24 -117 c-14 -64 -27 -130 -30 -147 -3 -16 -18
-93 -35 -170 -16 -77 -32 -160 -35 -185 -11 -92 47 -160 136 -160 38 0 79 20
325 161 154 89 286 162 291 162 6 0 136 -72 290 -159 271 -154 282 -159 337
-159 51 0 61 3 89 32 44 44 47 94 14 268 -14 77 -30 163 -35 190 -5 28 -13 70
-19 95 -12 56 -25 137 -25 170 -1 20 43 67 214 231 118 113 225 220 238 239
42 63 21 155 -45 188 -21 11 -63 23 -93 27 -30 3 -95 12 -145 20 -81 13 -227
32 -372 50 -42 5 -54 11 -59 28 -3 12 -64 139 -134 282 -142 290 -167 324
-242 332 -31 3 -51 -1 -74 -15z m99 -106 c27 -35 115 -207 219 -426 32 -68 66
-133 76 -143 28 -31 37 -33 257 -62 17 -2 64 -9 105 -14 41 -6 95 -13 120 -16
116 -14 191 -29 206 -40 35 -25 6 -61 -223 -281 -126 -119 -233 -228 -239
-241 -12 -28 9 -172 65 -443 48 -229 49 -271 5 -278 -11 -1 -142 67 -291 152
-150 85 -288 159 -308 166 -32 11 -42 9 -98 -18 -34 -16 -168 -91 -297 -166
-129 -75 -245 -136 -257 -136 -32 0 -45 31 -34 82 5 24 12 59 15 78 6 37 25
131 76 370 18 86 29 158 25 177 -3 19 -20 44 -43 64 -91 79 -442 431 -442 444
0 30 49 46 201 65 85 11 163 22 174 25 11 2 47 7 80 10 80 8 173 24 212 36 40
13 55 37 132 212 72 164 164 350 192 389 26 37 41 35 72 -6z"/>
</g>
</svg>
