<?xml version="1.0" standalone="no"?>
<!DOCTYPE svg PUBLIC "-//W3C//DTD SVG 20010904//EN"
 "http://www.w3.org/TR/2001/REC-SVG-20010904/DTD/svg10.dtd">
<svg version="1.0" xmlns="http://www.w3.org/2000/svg"
 width="1024.000000pt" height="1024.000000pt" viewBox="0 0 1024.000000 1024.000000"
 preserveAspectRatio="xMidYMid meet">

<g transform="translate(0.000000,1024.000000) scale(0.100000,-0.100000)"
fill="#000000" stroke="none">
<path d="M3850 8109 c-442 -51 -852 -238 -1165 -532 -343 -322 -560 -741 -621
-1202 -25 -185 -15 -518 21 -685 114 -546 427 -1002 895 -1310 339 -222 777
-344 1175 -326 441 19 837 161 1176 422 l56 43 205 -207 206 -207 -24 -44
c-28 -52 -32 -123 -9 -179 19 -46 1598 -1630 1663 -1669 31 -18 63 -27 111
-31 108 -7 141 12 319 191 170 172 193 208 194 311 2 129 38 89 -855 984 -554
556 -814 810 -842 823 -62 29 -142 21 -188 -19 -17 -15 -32 -2 -229 195 l-211
211 64 99 c172 265 282 572 320 897 15 128 6 462 -15 576 -49 261 -134 487
-265 703 -367 606 -1044 973 -1780 966 -69 -1 -160 -5 -201 -10z m603 -123
c617 -118 1126 -505 1392 -1058 249 -517 245 -1138 -9 -1673 -275 -578 -781
-961 -1428 -1081 -115 -22 -412 -30 -535 -15 -455 57 -842 244 -1162 562 -650
649 -759 1684 -257 2433 315 468 785 766 1343 850 160 24 482 15 656 -18z
m1431 -3388 l208 -203 -115 -113 -115 -114 -206 203 -206 202 96 97 c54 54
101 105 106 114 5 9 12 16 17 16 4 0 101 -91 215 -202z m445 -192 c15 -8 382
-372 816 -808 548 -552 794 -805 806 -833 46 -101 16 -165 -168 -347 -156
-154 -182 -168 -270 -147 -46 11 -86 49 -846 808 -439 438 -805 808 -813 823
-8 15 -14 45 -14 67 0 33 7 50 37 83 66 77 236 249 306 309 72 63 96 70 146
45z"/>
<path d="M3941 6904 c-23 -17 -28 -53 -9 -72 8 -8 58 -12 158 -12 132 0 149 2
164 19 22 25 13 59 -19 71 -13 5 -80 9 -148 9 -94 0 -129 -4 -146 -15z"/>
<path d="M3334 6889 c-16 -18 -20 -40 -22 -146 -4 -137 7 -173 51 -173 40 0
47 18 47 120 0 61 4 100 12 108 8 8 49 12 118 12 91 0 109 3 123 18 21 23 22
46 1 66 -13 13 -42 16 -163 16 -138 0 -149 -1 -167 -21z"/>
<path d="M4532 6898 c-16 -16 -15 -65 1 -75 6 -4 62 -10 122 -13 l110 -5 5
-100 c3 -55 9 -106 13 -112 11 -17 62 -17 75 0 9 10 15 151 13 264 -2 47 -22
53 -180 53 -101 0 -151 -4 -159 -12z"/>
<path d="M3350 6313 c-35 -12 -40 -35 -40 -184 0 -159 6 -179 54 -179 43 0 47
18 44 185 -3 145 -5 159 -23 170 -11 7 -27 10 -35 8z"/>
<path d="M4786 6304 c-23 -23 -23 -289 0 -322 18 -26 46 -28 68 -6 13 13 16
43 16 168 0 105 -4 156 -12 164 -17 17 -54 15 -72 -4z"/>
<path d="M4808 5703 c-23 -6 -27 -27 -31 -143 l-2 -95 -113 -5 c-98 -4 -116
-8 -128 -25 -8 -11 -12 -26 -9 -33 3 -8 5 -17 5 -22 0 -22 65 -32 184 -29 166
5 160 -2 164 179 3 129 2 140 -17 159 -21 21 -23 22 -53 14z"/>
<path d="M3330 5680 c-18 -18 -20 -33 -20 -155 0 -182 -8 -175 188 -175 132 0
151 2 165 18 22 24 21 45 -1 65 -15 14 -40 17 -123 17 -68 0 -109 4 -117 12
-8 8 -12 48 -12 115 0 91 -2 103 -19 113 -28 14 -38 13 -61 -10z"/>
<path d="M3940 5440 c-25 -25 -25 -42 -2 -63 16 -14 43 -17 163 -17 100 0 149
4 157 12 19 19 15 66 -7 78 -11 5 -81 10 -155 10 -123 0 -138 -2 -156 -20z"/>
</g>
</svg>
