<?xml version="1.0" standalone="no"?>
<!DOCTYPE svg PUBLIC "-//W3C//DTD SVG 20010904//EN"
 "http://www.w3.org/TR/2001/REC-SVG-20010904/DTD/svg10.dtd">
<svg version="1.0" xmlns="http://www.w3.org/2000/svg"
 width="1024.000000pt" height="1024.000000pt" viewBox="0 0 1024.000000 1024.000000"
 preserveAspectRatio="xMidYMid meet">

<g transform="translate(0.000000,1024.000000) scale(0.100000,-0.100000)"
fill="#000000" stroke="none">
<path d="M2510 5236 l0 -2486 485 0 485 0 0 990 0 990 576 -2 576 -3 95 -165
c52 -91 345 -601 650 -1135 305 -533 566 -980 580 -992 28 -27 75 -30 97 -7 9
8 23 39 31 67 8 29 55 190 103 360 49 169 91 310 94 313 5 4 293 -269 706
-670 103 -100 124 -115 165 -116 43 0 64 14 170 119 130 127 148 163 113 229
-8 15 -184 194 -392 397 l-377 370 507 5 508 5 24 28 c26 31 32 91 11 118 -12
16 -992 631 -1417 889 -129 79 -317 193 -418 254 -163 99 -342 232 -342 255 0
5 32 12 71 15 221 22 435 127 582 286 477 514 437 1497 -79 1979 -200 187
-451 304 -779 363 -119 22 -135 22 -1472 25 l-1353 4 0 -2485z m2477 1653
c118 -16 256 -65 340 -121 93 -63 154 -133 203 -233 58 -117 75 -189 74 -325
0 -202 -54 -340 -184 -471 -61 -61 -95 -85 -170 -123 -180 -88 -258 -95 -1107
-96 l-663 0 0 690 0 690 714 0 c454 0 743 -4 793 -11z"/>
</g>
</svg>
