<?xml version="1.0" encoding="utf-8" ?>
<svg baseProfile="full" height="256" version="1.1" width="256" xmlns="http://www.w3.org/2000/svg" xmlns:ev="http://www.w3.org/2001/xml-events" xmlns:xlink="http://www.w3.org/1999/xlink"><defs /><polyline fill="none" points="0,128.0 5,138.5559022615263 10,148.45548964711267 15,157.0832537609956 20,163.90276201847024 25,168.49001042583834 30,170.55978609510632 35,169.98340039995463 40,166.79669021122908 45,161.19778973388463 50,153.5348114817688 55,144.28420232756616 60,134.02112034388767 65,123.3836742600487 70,113.03324895190956 75,103.61338373366 80,95.70976020019506 85,89.81378738224711 90,86.29204831295587 95,85.36350767038388 100,87.08589761437275 105,91.35212828046541 110,97.89694610899662 115,106.31342602669831 120,116.07827207684583 125,126.58435342730424 130,137.17845282508011 135,147.20188048130635 140,156.03142821200166 145,163.1181175044909 150,168.02133234238886 155,170.4362145754102 160,170.2126185225976 165,167.36444630354518 170,162.06878347193557 175,154.65488869351222 180,145.5837220369816 185,135.41928470956518 190,124.79355219362947 195,114.36718107211632 200,104.78843260205356 205,96.65286696939539 210,90.46631424120875 215,86.61342430205104 220,85.33375118716998 225,86.70685877285285 230,90.64737387996038 235,96.91029436470741 240,105.10622216531478 245,114.7255741874719 250,125.17026571301544 255,135.79089641092838" stroke="rgb(141,232,98)" stroke-width="2" /></svg>