<?xml version="1.0" encoding="utf-8" ?>
<svg baseProfile="full" height="256" version="1.1" width="256" xmlns="http://www.w3.org/2000/svg" xmlns:ev="http://www.w3.org/2001/xml-events" xmlns:xlink="http://www.w3.org/1999/xlink"><defs /><rect fill="black" height="256" width="256" x="0" y="0" /><circle cx="106.11513961429824" cy="189.2002253136924" fill="white" r="1.3351064977887472" /><circle cx="72.68418508878904" cy="242.4226398654826" fill="white" r="1.2861202374743703" /><circle cx="220.08548303890134" cy="21.99044707560722" fill="white" r="2.2415869834709503" /><circle cx="101.38122475908045" cy="52.61901491375062" fill="white" r="2.55826658298166" /><circle cx="205.15881919119403" cy="244.45279799234697" fill="white" r="1.6799964679705646" /><circle cx="199.18920872060752" cy="116.43479178454189" fill="white" r="1.0553673129029393" /><circle cx="23.506256138444854" cy="90.26832288662672" fill="white" r="1.9596974935072167" /><circle cx="124.55135409575209" cy="218.0406214646502" fill="white" r="2.472578025024804" /><circle cx="183.08209032874063" cy="242.92537841194476" fill="white" r="1.2089175075447938" /><circle cx="58.605627874199655" cy="98.44079790776087" fill="white" r="2.8750532639823407" /><circle cx="166.59819277166392" cy="17.304698765174408" fill="white" r="1.9936514115316764" /><circle cx="104.03416938377217" cy="118.15179212406312" fill="white" r="2.1882131445480795" /><circle cx="147.67842679092254" cy="251.81106823618643" fill="white" r="2.091854446162123" /><circle cx="251.96377253895284" cy="109.13217652831395" fill="white" r="2.2267300509882464" /><circle cx="121.66741551111272" cy="133.53803041613637" fill="white" r="1.1169102071577974" /><circle cx="71.97062502564322" cy="145.48488966347657" fill="white" r="1.6469091428535367" /><circle cx="179.55502345474818" cy="76.98461557191703" fill="white" r="1.2877404103661259" /><circle cx="214.93442144992906" cy="48.72839625014032" fill="white" r="2.1813100564838535" /><circle cx="233.44645688842934" cy="52.86227002222839" fill="white" r="1.2624556844066743" /><circle cx="118.17447689991442" cy="144.47694399872233" fill="white" r="1.7771018490326769" /><circle cx="4.7874397088110925" cy="153.11596646936547" fill="white" r="1.6167229586290632" /><circle cx="77.28781236848025" cy="59.47660745520224" fill="white" r="1.5687832222085085" /><circle cx="205.8669371610652" cy="123.79247165974172" fill="white" r="1.0414325654829442" /><circle cx="134.90856611507147" cy="115.91364063832" fill="white" r="1.3849364019628736" /><circle cx="140.8407063984545" cy="166.30360233511107" fill="white" r="2.823578063792792" /><circle cx="231.40603594799285" cy="35.061371424702486" fill="white" r="2.148749812565649" /><circle cx="85.20104286723694" cy="197.81398723606245" fill="white" r="2.6530640665631644" /><circle cx="64.17659471593387" cy="178.88269521510097" fill="white" r="1.732326727669484" /><circle cx="14.72984681373822" cy="143.4844347444078" fill="white" r="2.073844786987811" /><circle cx="190.06578044000784" cy="40.257021277223146" fill="white" r="2.10433971482954" /><circle cx="211.79574624787207" cy="59.44545525462499" fill="white" r="1.5900365452223686" /><circle cx="210.83914732681868" cy="54.02047373684212" fill="white" r="1.097686181410699" /><circle cx="117.03015312542502" cy="180.04455916208377" fill="white" r="1.3195070019606931" /><circle cx="148.79621464118082" cy="95.94378550315483" fill="white" r="2.680670916795192" /><circle cx="192.63844747221523" cy="193.13150851415017" fill="white" r="2.9335932425297657" /><circle cx="12.423635178432932" cy="255.5144620008029" fill="white" r="2.776741113044409" /><circle cx="194.41509001765962" cy="0.7680178515631155" fill="white" r="2.8227896534651" /><circle cx="103.63055111178457" cy="100.71133703476983" fill="white" r="1.4662839089875928" /><circle cx="240.3236064139644" cy="145.87624288943422" fill="white" r="2.7021638041108096" /><circle cx="46.15480827229007" cy="106.7792497833004" fill="white" r="2.302403583171143" /><circle cx="104.71305428545455" cy="248.65861595284997" fill="white" r="1.401708622620136" /><circle cx="79.46665707612206" cy="70.4704932117074" fill="white" r="2.3920839988188147" /><circle cx="17.95133803941752" cy="54.79900694717222" fill="white" r="1.8807656971903541" /><circle cx="248.13995234224413" cy="155.96556726176516" fill="white" r="2.618396247003502" /><circle cx="22.071088424910982" cy="201.52096926212195" fill="white" r="2.9159348717986564" /><circle cx="113.92618026391304" cy="192.73369770074308" fill="white" r="2.600586832565625" /><circle cx="199.3503563930699" cy="218.78462200580435" fill="white" r="2.10601669981618" /><circle cx="135.85639039451948" cy="248.4296546279257" fill="white" r="1.9060847793358882" /><circle cx="121.88561066419584" cy="88.32070694437118" fill="white" r="1.1769352416466277" /><circle cx="49.82972706736632" cy="39.03953403886919" fill="white" r="1.1503433856012204" /></svg>