<?xml version="1.0" encoding="utf-8" ?>
<svg baseProfile="full" height="256" version="1.1" width="256" xmlns="http://www.w3.org/2000/svg" xmlns:ev="http://www.w3.org/2001/xml-events" xmlns:xlink="http://www.w3.org/1999/xlink"><defs /><rect fill="rgb(172,50,14)" height="32.0" width="32.0" x="0.0" y="32.0" /><rect fill="rgb(110,246,54)" height="32.0" width="32.0" x="0.0" y="64.0" /><rect fill="rgb(156,167,93)" height="32.0" width="32.0" x="0.0" y="128.0" /><rect fill="rgb(107,57,45)" height="32.0" width="32.0" x="0.0" y="192.0" /><rect fill="rgb(68,27,105)" height="32.0" width="32.0" x="32.0" y="128.0" /><rect fill="rgb(252,1,3)" height="32.0" width="32.0" x="32.0" y="192.0" /><rect fill="rgb(105,117,23)" height="32.0" width="32.0" x="64.0" y="0.0" /><rect fill="rgb(165,218,5)" height="32.0" width="32.0" x="64.0" y="64.0" /><rect fill="rgb(61,137,89)" height="32.0" width="32.0" x="64.0" y="160.0" /><rect fill="rgb(50,186,67)" height="32.0" width="32.0" x="96.0" y="0.0" /><rect fill="rgb(82,85,161)" height="32.0" width="32.0" x="96.0" y="64.0" /><rect fill="rgb(220,198,190)" height="32.0" width="32.0" x="96.0" y="128.0" /><rect fill="rgb(5,155,217)" height="32.0" width="32.0" x="96.0" y="192.0" /><rect fill="rgb(201,33,113)" height="32.0" width="32.0" x="128.0" y="32.0" /><rect fill="rgb(174,32,124)" height="32.0" width="32.0" x="128.0" y="160.0" /><rect fill="rgb(153,97,137)" height="32.0" width="32.0" x="160.0" y="64.0" /><rect fill="rgb(177,176,26)" height="32.0" width="32.0" x="160.0" y="96.0" /><rect fill="rgb(38,231,162)" height="32.0" width="32.0" x="160.0" y="128.0" /><rect fill="rgb(35,136,209)" height="32.0" width="32.0" x="160.0" y="160.0" /><rect fill="rgb(21,156,254)" height="32.0" width="32.0" x="160.0" y="192.0" /><rect fill="rgb(37,40,67)" height="32.0" width="32.0" x="192.0" y="0.0" /><rect fill="rgb(55,203,88)" height="32.0" width="32.0" x="192.0" y="64.0" /><rect fill="rgb(78,155,97)" height="32.0" width="32.0" x="192.0" y="128.0" /><rect fill="rgb(91,182,78)" height="32.0" width="32.0" x="192.0" y="160.0" /><rect fill="rgb(170,176,250)" height="32.0" width="32.0" x="192.0" y="192.0" /><rect fill="rgb(150,156,87)" height="32.0" width="32.0" x="224.0" y="64.0" /><rect fill="rgb(129,30,208)" height="32.0" width="32.0" x="224.0" y="96.0" /><rect fill="rgb(9,33,158)" height="32.0" width="32.0" x="224.0" y="160.0" /><rect fill="rgb(18,49,145)" height="32.0" width="32.0" x="224.0" y="192.0" /></svg>